<?xml version="1.0" standalone="no"?>
<!DOCTYPE svg PUBLIC "-//W3C//DTD SVG 20010904//EN"
 "http://www.w3.org/TR/2001/REC-SVG-20010904/DTD/svg10.dtd">
<svg version="1.0" xmlns="http://www.w3.org/2000/svg"
 width="1280.000000pt" height="1280.000000pt" viewBox="0 0 1280.000000 1280.000000"
 preserveAspectRatio="xMidYMid meet">
<metadata>
Created by potrace 1.15, written by Peter Selinger 2001-2017
</metadata>
<g transform="translate(0.000000,1280.000000) scale(0.100000,-0.100000)"
fill="#000000" stroke="none">
<path d="M7920 11731 c-14 -5 -41 -16 -60 -26 -19 -9 -335 -317 -702 -683
l-668 -667 0 -757 0 -758 -1414 0 c-1380 0 -1415 0 -1478 -20 -120 -37 -216
-121 -271 -238 l-32 -67 0 -291 0 -290 37 -75 c46 -93 122 -168 215 -212 l68
-32 303 -3 302 -3 0 -22 c0 -12 5 -94 10 -182 6 -88 84 -1420 175 -2960 91
-1540 176 -2987 190 -3216 14 -229 25 -421 25 -427 0 -9 522 -12 2139 -12
l2140 0 5 43 c3 23 12 164 21 312 8 149 92 1568 185 3155 94 1587 176 2980
183 3095 l12 210 300 5 300 5 76 36 c130 62 224 182 249 318 13 70 13 442 0
512 -25 134 -118 252 -249 317 l-75 37 -1438 3 -1438 2 0 643 0 642 591 590
c354 354 599 606 611 630 13 25 23 66 26 110 4 64 1 75 -29 134 -61 116 -193
177 -309 142z"/>
</g>
</svg>
